<?xml version="1.0" encoding="utf-8"?>
<!-- Generator: Adobe Illustrator 24.1.2, SVG Export Plug-In . SVG Version: 6.00 Build 0)  -->
<svg version="1.1" id="Capa_1" xmlns="http://www.w3.org/2000/svg" xmlns:xlink="http://www.w3.org/1999/xlink" x="0px" y="0px"
	 viewBox="0 0 228 218.4" style="enable-background:new 0 0 228 218.4;" xml:space="preserve">
<style type="text/css">
	.st0{fill:#FFFFFF;}
	.st1{fill:#FFFFFF;stroke:#FFFFFF;stroke-width:5;stroke-miterlimit:10;}
	.st2{fill:#FFFFFF;stroke:#FFFFFF;stroke-width:3;stroke-miterlimit:10;}
	.st3{fill:#FFFFFF;stroke:#FFFFFF;stroke-width:10;stroke-linecap:round;stroke-linejoin:round;}
</style>
<g id="Capa_2_1_">
	<g id="Capa_1-2">
		<path class="st0" d="M62.9,54.6h102.3c3.4,0,6.1,2.7,6.1,6.1v0.6c0,3.4-2.7,6.1-6.1,6.1H62.9c-3.4,0-6.1-2.7-6.1-6.1v-0.6
			C56.8,57.4,59.5,54.6,62.9,54.6z"/>
		<path class="st1" d="M165.1,60.7v0.6H62.9v-0.6H165.1"/>
		<path class="st2" d="M62.1,108.5l0.5,0.6h-0.5V108.5 M164.4,109.1L164.4,109.1 M164.4,109.1L111.9,161l-49.3-51.9H164.4
			 M62.1,99.6c-4.9,0-8.9,4-8.9,8.9v0.6c0,3.2,1.7,6.1,4.5,7.7l47.7,50.3c1.6,1.7,3.9,2.7,6.3,2.8h0.1c2.3,0,4.6-0.9,6.3-2.6
			l52.4-51.9c3.5-3.4,3.6-9,0.2-12.6c-1.7-1.7-4-2.7-6.4-2.7H65.2C64.2,99.8,63.2,99.6,62.1,99.6L62.1,99.6z"/>
		<rect x="113.7" y="64.7" class="st3" width="0.6" height="39.5"/>
	</g>
</g>
</svg>
