<?xml version="1.0" encoding="utf-8"?>
<!-- Generator: Adobe Illustrator 24.1.2, SVG Export Plug-In . SVG Version: 6.00 Build 0)  -->
<svg version="1.1" id="Capa_1" xmlns="http://www.w3.org/2000/svg" xmlns:xlink="http://www.w3.org/1999/xlink" x="0px" y="0px"
	 viewBox="0 0 228 218.4" style="enable-background:new 0 0 228 218.4;" xml:space="preserve">
<style type="text/css">
	.st0{fill:#FFFFFF;}
</style>
<g id="Capa_2_1_">
	<g id="Capa_1-2">
		<path class="st0" d="M62.2,52.2h103.6c3.4,0,6.2,2.8,6.2,6.2V59c0,3.4-2.8,6.2-6.2,6.2H62.2c-3.4,0-6.2-2.8-6.2-6.2v-0.6
			C56,55,58.8,52.2,62.2,52.2z"/>
		<path class="st0" d="M165.8,58.4V59H62.2v-0.6H165.8 M165.8,46H62.2c-6.8,0-12.4,5.5-12.4,12.4V59c0,6.8,5.5,12.4,12.4,12.4h103.6
			c6.8,0,12.4-5.5,12.4-12.4v-0.6C178.2,51.5,172.7,46,165.8,46z"/>
		<path class="st0" d="M62.2,153.9h103.6c3.4,0,6.2,2.8,6.2,6.2v0.6c0,3.4-2.8,6.2-6.2,6.2H62.2c-3.4,0-6.2-2.8-6.2-6.2V160
			C56,156.6,58.8,153.9,62.2,153.9z"/>
		<path class="st0" d="M165.8,160v0.6H62.2V160H165.8 M165.8,147.7H62.2c-6.8,0-12.4,5.5-12.4,12.4v0.6c0,6.8,5.5,12.4,12.4,12.4
			h103.6c6.8,0,12.4-5.5,12.4-12.4V160C178.2,153.2,172.7,147.7,165.8,147.7z"/>
		<path class="st0" d="M62.2,103.7h103.6c3.4,0,6.2,2.8,6.2,6.2v0.6c0,3.4-2.8,6.2-6.2,6.2H62.2c-3.4,0-6.2-2.8-6.2-6.2v-0.6
			C56,106.5,58.8,103.7,62.2,103.7z"/>
		<path class="st0" d="M165.8,109.9v0.6H62.2v-0.6H165.8 M165.8,97.5H62.2c-6.8,0-12.4,5.5-12.4,12.4v0.6c0,6.8,5.5,12.4,12.4,12.4
			h103.6c6.8,0,12.4-5.5,12.4-12.4v-0.6C178.2,103.1,172.7,97.5,165.8,97.5z"/>
	</g>
</g>
</svg>
