<?xml version="1.0" encoding="utf-8"?>
<!-- Generator: Adobe Illustrator 24.1.2, SVG Export Plug-In . SVG Version: 6.00 Build 0)  -->
<svg version="1.1" id="Capa_1" xmlns="http://www.w3.org/2000/svg" xmlns:xlink="http://www.w3.org/1999/xlink" x="0px" y="0px"
	 viewBox="0 0 228 218.4" style="enable-background:new 0 0 228 218.4;" xml:space="preserve">
<style type="text/css">
	.st0{fill:#FFFFFF;}
	.st1{fill:#DC143C;}
	.st2{fill:none;stroke:#DC143C;stroke-miterlimit:10;}
</style>
<g id="Capa_2_1_">
	<g id="Capa_1-2">
		<path class="st0" d="M154.4,183.8L154.4,183.8c-8.6,0.1-17,2.9-24,7.9l-38.4,26l1.5-24.4c0.3-4.7-1.6-9-4.3-9.5
			c-0.2,0-0.4,0-0.5,0H46.5c-6.9,0-12.5-9.9-12.5-22V22.1c0-12.1,5.6-22,12.5-22h124.2c6.9,0,18.7-0.2,18.7,11.9v159.9
			C189.4,184,161.3,183.8,154.4,183.8z"/>
		<path class="st1" d="M78.8,118.2c-0.5,0.4-0.5,0.3-0.6,0.4s-0.3,5-0.4,5c-0.1,0-1.1-4.4-1.6-4.4h-0.4c-0.2,0-0.4,5.1-0.6,5.1
			c-0.2,0-1.3-5.2-1.8-5.2s-0.2,0-0.3,0c-0.1,0-0.4,4.3-0.6,4.2s-1.3-5-1.5-5c-2.1-1-3.5-3-3.8-5.3l-0.5-2.7
			c-4-20.6-4.6-41.7-1.9-62.5c1.4-10.3,7.8-19.3,17-23.9l14.2-7.1c1.3-0.5,2.7-0.8,4.1-0.8l0.3-5.7c0,0-0.6,1.4-2.2-0.2
			c-1.6-1.6,0.2-8.6,4.7-4.8l0.1-0.2c2.6-3.1,6.6-4.9,10.7-4.8l1.4,0.2h0.2c3.7,0,7.2,1.8,9.3,4.9c0,0,1.1-2.1,2.8-1.1
			c1.7,1,3.7,3,1.7,4.3c-2,1.3-2.1,0.4-2.1,0.4l0.7,6.5l14.9,5.9c3.9,1.5,7.3,3.9,9.9,7.1c2.7,3.2,4.5,7,5.3,11.1
			c4.5,22.8,3.5,46.4-2.9,68.8l-3.7,12.8c0,0.3-0.1,0.5-0.2,0.7c-0.8,2.5-3.5,3.8-6,2.9c-0.2-0.1-3.6,3.3-3.7,3.2
			c-0.1-0.1,1.7-3.4,1.9-3.9c-0.4,0.3-3.2,3-3.4,2.9c-0.1-0.1,2.1-3.7,2.1-3.9c0-0.2,0.1,0,0.1,0c0,0-0.1-0.1-0.1-0.1
			c-0.2-0.2-3.1,3.2-3.2,3.1c-0.1-0.1,2-4.8,2-5c-0.9-1.3-1.1-2.9-0.7-4.4l2.2-13.8c0.8-5.3,1.2-10.6,1.2-16
			c0-7.1-0.7-14.3-2.2-21.3l-4.9,94.9c0,1.4,3.7,4.3,2.9,5.5c-1.4,2.2-8.1,1.9-10.8,1.9h-1.6c-3.5-0.1-6.5-2.7-7-6.2l-5.6-37.4
			c-0.2-0.7-0.8-1.1-1.5-1c-0.5,0.1-0.8,0.5-1,1l-6.6,36.6c-0.7,3.8-4,6.5-7.8,6.5h-1.4c-2.8-0.1-9.9,0.5-11.2-1.8
			c-0.5-1,3.8-4.2,3.8-5.5l-4.3-93.2l-0.5,2.5c-2.2,12.1-3.3,24.4-3.2,36.7v9.2C80.5,116.5,79.8,117.6,78.8,118.2z"/>
		<path class="st2" d="M142.9,123.8l0.3,0.2l0,0c-0.2,0.4-2,3.8-1.9,3.9c0.1,0.1,3.4-3.3,3.7-3.2c2.5,0.8,5.1-0.5,6-2.9
			c0.1-0.2,0.1-0.5,0.2-0.7l3.7-12.8c6.5-22.4,7.5-46,2.9-68.8c-0.8-4.1-2.6-7.9-5.3-11.1c-2.7-3.2-6.1-5.6-9.9-7.1l-15-5.9
			l-0.7-6.5c0,0,0.2,0.9,2.1-0.4c1.9-1.3,0-3.3-1.7-4.3c-1.7-1-2.8,1.1-2.8,1.1c-2.1-3.1-5.5-4.9-9.3-5H115l-1.4-0.2
			c-4.1-0.1-8,1.7-10.6,4.8l-0.1,0.2c-4.6-3.8-6.3,3.2-4.7,4.8c1.6,1.6,2.2,0.2,2.2,0.2l-0.3,5.7c-1.4,0.1-2.8,0.3-4.1,0.8
			l-14.2,7.1c-9.3,4.7-15.7,13.6-17,24c-2.8,20.8-2.1,41.9,1.9,62.5l0.5,2.7c0.3,2.3,1.7,4.2,3.8,5.3c0.2,0,1.3,4.9,1.5,5
			c0.2,0.1,0.5-4.2,0.6-4.2c0.2,0-0.2,0,0.3,0s1.6,5.2,1.8,5.2c0.2,0,0.4-5.1,0.6-5.1h0.4c0.5,0,1.5,4.4,1.6,4.4s0.2-5,0.4-5
			c0.2-0.1,0.2,0,0.6-0.4c1.1-0.6,1.7-1.7,1.7-3V106c-0.1-12.3,1-24.6,3.2-36.7l0.5-2.5l4.3,93.2c0,1.2-4.3,4.5-3.8,5.5
			c1.3,2.3,8.4,1.7,11.2,1.8h1.4c3.9,0.1,7.2-2.7,7.8-6.5l6.6-36.6c0.2-0.7,0.8-1.1,1.5-1c0.5,0.1,0.8,0.5,1,1l5.6,37.4
			c0.5,3.5,3.5,6.1,7,6.2h1.5c2.7,0,9.4,0.3,10.8-1.9c0.7-1.1-2.9-4-2.9-5.5l4.9-94.9c1.5,7,2.2,14.1,2.2,21.3
			c0,5.4-0.4,10.7-1.3,16l-2.2,13.8c-0.4,1.5-0.1,3.1,0.7,4.4c0,0.1-2.1,4.8-2,5c0.1,0.1,3-3.3,3.2-3.1c0,0,0.1,0.1,0.1,0.1"/>
		<path class="st2" d="M142,123L142,123C142,123,141.9,122.9,142,123c-0.1,0.1-2.3,3.8-2.2,3.9c0.1,0.1,3-2.7,3.4-2.9"/>
	</g>
</g>
</svg>
