<?xml version="1.0" encoding="utf-8"?>
<!-- Generator: Adobe Illustrator 24.1.2, SVG Export Plug-In . SVG Version: 6.00 Build 0)  -->
<svg version="1.1" id="Capa_1" xmlns="http://www.w3.org/2000/svg" xmlns:xlink="http://www.w3.org/1999/xlink" x="0px" y="0px"
	 viewBox="0 0 442.6 210.6" style="enable-background:new 0 0 442.6 210.6;" xml:space="preserve">
<style type="text/css">
	.st0{fill:#FFFFFF;}
	.st1{fill:#DC143C;}
</style>
<g id="Capa_2_1_">
	<g id="bckgrnd">
		<path class="st0" d="M422.6,179.8h-225c-13.2,0-26.2,2.4-38.5,7.2l-61.6,23.7l2.4-22.2c0.5-4.3-2.6-8.2-6.9-8.6
			c-0.3,0-0.6,0-0.9,0H24.6c-11,0-20-9-20-20V32.6c0-11,9-20,20-20h398c11,0,20,9,20,20v127.2C442.7,170.8,433.7,179.7,422.6,179.8
			C422.7,179.8,422.6,179.8,422.6,179.8z"/>
		<path class="st1" d="M70.6,73.4c-4.6,4.8-11.8,9-11.8,9S47,85.8,39.2,85.8c-11.6,0-20.7-3-27.4-9C3.9,69.6,0,59.6,0,46.7
			c0-12.5,3.5-22.3,10.4-29.2S26.9,7,39.3,7C52,7,61.7,10.4,68.6,17.2s10.3,16.5,10.3,29.2C78.9,57.6,76.1,66.6,70.6,73.4z
			 M52.6,61.4c0,0,2.8-8.4,2.8-15.1c0-7.7-1.4-13.2-4.3-16.5s-6.8-5-11.8-5c-4.4-0.1-8.5,1.7-11.4,5c-2.9,3.3-4.4,8.6-4.4,15.7
			c0,8.3,1.4,14.1,4.3,17.5c2.8,3.4,6.7,5,11.7,5c1.5,0,3-0.1,4.5-0.4C49.3,66.5,52.6,61.3,52.6,61.4L52.6,61.4z"/>
		<path class="st1" d="M116.7,70.8h-10.7v-4.8c-1.3,1.7-3,3.2-4.8,4.3c-1.9,0.9-3.9,1.3-6,1.3c-2.8,0.2-5.5-0.9-7.4-2.8
			c-1.8-1.9-2.7-4.8-2.7-8.7V40.8h11.5v16.5c-0.1,1.4,0.2,2.8,1.1,4c0.8,0.8,1.8,1.3,2.9,1.2c1.3,0,2.6-0.6,3.4-1.6
			c0.9-1.1,1.3-3,1.3-5.7V40.8h11.5V70.8z"/>
		<path class="st1" d="M156.9,58.6h-23c0.1,1.5,0.6,2.9,1.5,4.1c1.1,1.3,2.7,2,4.4,2c1.1,0,2.2-0.3,3.2-0.8c0.8-0.5,1.5-1.1,2-1.9
			l11.3,1c-1.4,2.7-3.6,5-6.3,6.5c-2.4,1.3-5.9,2-10.5,2c-4,0-7.1-0.6-9.4-1.7c-2.4-1.2-4.3-3.1-5.7-5.3c-1.5-2.6-2.3-5.6-2.2-8.6
			c-0.2-4.3,1.5-8.4,4.5-11.4c3-2.9,7.2-4.3,12.4-4.3c4.3,0,7.7,0.6,10.2,1.9c2.4,1.2,4.4,3.2,5.7,5.6c1.4,3,2.1,6.3,1.9,9.6
			L156.9,58.6z M145.2,53.1c0-1.7-0.7-3.4-1.8-4.8c-2.3-2.1-5.9-1.9-7.9,0.4c-0.1,0.1-0.2,0.2-0.3,0.3c-0.8,1.2-1.3,2.6-1.3,4
			L145.2,53.1z"/>
		<path class="st1" d="M178.1,40.8h12l5.8,19l6-19h11.6l-12.8,30h-10.2L178.1,40.8z"/>
		<path class="st1" d="M217.2,29.4h11.5v7.8h-11.5V29.4z M217.2,40.8h11.5v30h-11.5V40.8z"/>
		<path class="st1" d="M269.4,58.6h-23c0.1,1.5,0.6,2.9,1.5,4.1c1.1,1.3,2.7,2,4.4,2c1.1,0,2.2-0.3,3.2-0.8c0.8-0.5,1.5-1.1,2-1.9
			l11.3,1c-1.4,2.7-3.6,5-6.3,6.5c-2.4,1.3-6,2-10.5,2c-4,0-7.1-0.6-9.4-1.7c-2.4-1.2-4.3-3.1-5.7-5.3c-1.5-2.6-2.3-5.6-2.3-8.6
			c-0.2-4.3,1.5-8.4,4.5-11.4c3-2.9,7.2-4.3,12.4-4.3c4.3,0,7.7,0.6,10.2,1.9c2.4,1.2,4.4,3.2,5.7,5.7c1.4,3,2.1,6.3,2,9.6
			L269.4,58.6z M257.7,53.1c0-1.7-0.7-3.4-1.8-4.8c-2.3-2.1-5.9-1.9-7.9,0.4c-0.1,0.1-0.2,0.2-0.3,0.3c-0.8,1.2-1.3,2.6-1.3,4
			L257.7,53.1z"/>
		<path class="st1" d="M274.6,40.8h10.7v4.9c1.3-1.7,3-3.2,4.9-4.3c1.9-0.9,3.9-1.3,6-1.3c2.8-0.1,5.5,0.9,7.5,2.9
			c1.8,1.9,2.7,4.8,2.7,8.8v19h-11.6V54.3c0.1-1.4-0.2-2.8-1-4c-0.8-0.8-1.8-1.2-2.9-1.2c-1.3,0-2.6,0.6-3.4,1.6
			c-0.9,1.1-1.3,2.9-1.3,5.7v14.4h-11.5L274.6,40.8z"/>
		<path class="st1" d="M346.5,58.6h-23.1c0.1,1.5,0.6,2.9,1.5,4.1c1.1,1.3,2.7,2,4.4,2c1.1,0,2.2-0.3,3.2-0.8c0.8-0.5,1.5-1.1,2-1.9
			l11.3,1c-1.4,2.7-3.6,5-6.3,6.5c-2.5,1.3-6,2-10.5,2c-4,0-7.1-0.6-9.4-1.7c-2.4-1.2-4.3-3.1-5.7-5.4c-1.5-2.6-2.3-5.6-2.3-8.6
			c-0.2-4.3,1.5-8.4,4.5-11.4c3-2.9,7.1-4.3,12.4-4.3c4.3,0,7.7,0.6,10.2,1.9c2.4,1.2,4.4,3.2,5.7,5.7c1.4,3,2.1,6.3,2,9.6
			L346.5,58.6z M334.8,53.1c0-1.7-0.7-3.4-1.8-4.8c-2.3-2.1-5.9-1.9-7.9,0.4c-0.1,0.1-0.2,0.2-0.3,0.3c-0.8,1.2-1.3,2.6-1.3,4
			L334.8,53.1z"/>
		<path class="st1" d="M32.2,95.9l2.7-41.8h9l2.8,41.8v20.8H32.2V95.9z M32.7,32.6h13.6V46H32.7V32.6z"/>
		<path class="st1" d="M422.2,20.8l-5.6,85.5h-18.4l-5.8-85.5V0.2L422.2,0V20.8z M421.2,150.5h-27.8V123h27.8L421.2,150.5z"/>
		<path class="st1" d="M82.1,118H62.5c0.1,1.3,0.5,2.5,1.3,3.5c0.9,1.1,2.3,1.7,3.7,1.7c1,0,1.9-0.2,2.7-0.7c0.7-0.4,1.2-1,1.7-1.6
			l9.6,0.9c-1.2,2.3-3.1,4.2-5.3,5.5c-2.1,1.1-5.1,1.7-9,1.7c-2.7,0.1-5.5-0.4-8-1.4c-2-1-3.6-2.6-4.7-4.5c-1.3-2.2-2-4.7-1.9-7.3
			c-0.1-3.6,1.2-7.1,3.8-9.7c2.6-2.5,6.1-3.7,10.6-3.7c3-0.1,5.9,0.5,8.6,1.7c2.1,1.1,3.8,2.7,4.8,4.8c1.2,2.6,1.8,5.4,1.7,8.2
			L82.1,118z M72.2,113.4c0-1.5-0.6-2.9-1.5-4.1c-0.9-0.8-2.1-1.3-3.3-1.2c-1.5,0-2.9,0.7-3.7,1.8c-0.7,1-1.1,2.2-1.1,3.4H72.2z"/>
		<path class="st1" d="M87,93.2h9.8v35.2H87V93.2z"/>
		<path class="st1" d="M157.7,127.7l16.6,6.1c-0.9,5-2.6,9.8-5.2,14.1c-2.2,3.6-5.2,6.5-8.9,8.6c-3.6,1.9-8.1,2.9-13.6,2.9
			c-6.7,0-12.1-1.2-16.3-3.5c-4.2-2.3-7.8-6.5-10.9-12.4c-3.1-5.9-4.6-13.4-4.6-22.7c0-12.3,2.7-21.7,8.1-28.3
			c5.4-6.6,13-9.9,22.9-9.9c7.7,0,13.8,1.9,18.2,5.7s7.7,9.6,9.8,17.4l-16.7,4.5c-0.4-1.7-1-3.4-1.8-5c-1-1.6-2.3-3-3.9-4
			c-1.5-1-3.3-1.4-5.1-1.4c-4.3,0-7.6,2.1-9.9,6.3c-1.7,3.1-2.6,8-2.6,14.6c0,8.2,1,13.9,3.1,16.9c1.9,3,5.2,4.7,8.7,4.6
			c3.6,0,6.4-1.2,8.2-3.7C155.5,136,156.9,132.4,157.7,127.7z"/>
		<path class="st1" d="M181,121c0-12.1,2.8-21.5,8.4-28.3s13.3-10.1,23.3-10.1c10.2,0,18,3.3,23.6,9.9c5.5,6.6,8.3,15.9,8.3,27.9
			c0,8.7-1.2,15.8-3.6,21.3c-2.2,5.3-5.8,9.8-10.4,13c-4.6,3.1-10.2,4.6-17,4.6c-6.9,0-12.6-1.3-17.1-4c-4.5-2.7-8.2-6.9-11-12.6
			C182.4,136.9,181,129.7,181,121z M199.9,121.1c0,7.5,1.1,12.9,3.4,16.1c3.7,5.2,10.9,6.5,16.1,2.8c1.1-0.7,2-1.7,2.7-2.7
			c2.2-3.2,3.3-9,3.3-17.3c0-7-1.2-12.1-3.5-15.3c-2.1-3.1-5.7-4.9-9.5-4.8c-3.7-0.1-7.2,1.8-9.2,4.9
			C201.1,108.1,200,113.5,199.9,121.1L199.9,121.1z"/>
		<path class="st1" d="M295.4,127.7l16.6,6.1c-0.9,5-2.7,9.8-5.3,14.1c-2.2,3.6-5.3,6.5-8.9,8.6c-3.5,1.9-8.1,2.9-13.5,2.9
			c-6.7,0-12.1-1.2-16.3-3.5c-4.2-2.3-7.8-6.5-10.9-12.4c-3.1-5.9-4.6-13.4-4.6-22.7c0-12.3,2.7-21.7,8.1-28.3
			c5.4-6.6,13-9.9,22.9-9.9c7.7,0,13.8,1.9,18.2,5.7s7.7,9.6,9.8,17.4l-16.7,4.5c-0.4-1.7-1-3.4-1.8-5c-1-1.6-2.3-3-3.9-4
			c-1.5-1-3.3-1.4-5.1-1.4c-4.3,0-7.6,2.1-9.9,6.3c-1.7,3.1-2.6,8-2.6,14.6c0,8.2,1,13.9,3.1,16.9c1.9,3,5.2,4.7,8.7,4.6
			c3.6,0,6.4-1.2,8.2-3.7C293.3,136,294.6,132.4,295.4,127.7z"/>
		<path class="st1" d="M318.4,119.5c0-12.1,2.8-21.6,8.4-28.3c5.6-6.7,13.3-10.1,23.2-10.1c10.2,0,18,3.3,23.5,9.9
			c5.5,6.6,8.3,15.9,8.3,27.9c0,8.7-1.2,15.8-3.6,21.3c-2.2,5.2-5.8,9.7-10.4,12.9c-4.5,3.1-10.2,4.6-17,4.6c-6.9,0-12.6-1.3-17.1-4
			s-8.2-6.9-11-12.6C319.8,135.4,318.4,128.2,318.4,119.5z M347.2,92.7c-1.5-1.3-2.1,1.1-1.6,1.6s0.7,0.1,0.7,0.1l-0.1,1.9
			c-0.5,0-0.9,0.1-1.4,0.3L340,99c-3.1,1.6-5.3,4.6-5.8,8.1l0,0c-0.9,7.1-0.7,14.2,0.6,21.2l0.2,0.9c0.1,0.8,0.6,1.4,1.3,1.8
			c0.1,0,0.4,1.7,0.5,1.7s0.2-1.4,0.2-1.4s-0.1,0,0.1,0s0.5,1.8,0.6,1.8s0.1-1.7,0.2-1.7s0,0,0.1,0s0.5,1.5,0.5,1.5s0.1-1.7,0.1-1.7
			s0.1,0,0.2-0.1l0,0c0.4-0.2,0.6-0.6,0.6-1v-3.1c0-4.2,0.3-8.3,1.1-12.4l0.1-0.8l1.5,31.6c0,0.4-1.5,1.5-1.3,1.9
			c0.4,0.8,2.9,0.6,3.8,0.6h0.5c1.3,0,2.4-0.9,2.7-2.2l2.2-12.4c0.1-0.2,0.3-0.4,0.5-0.3c0.2,0,0.3,0.2,0.3,0.3l1.9,12.7
			c0.2,1.2,1.2,2.1,2.4,2.1h0.5c0.9,0,3.2,0.1,3.7-0.6c0.2-0.4-1-1.4-1-1.9l1.7-32.2l0,0c0.9,4.2,1,8.4,0.3,12.6l-0.7,4.7
			c-0.1,0.5,0,1.1,0.3,1.5c0,0.1-0.7,1.6-0.7,1.7s1-1.1,1.1-1.1s0,0,0,0.1s-0.7,1.3-0.7,1.3s1.1-1,1.1-1l-0.1-0.1l0,0l0.1,0.1
			c0,0-0.7,1.3-0.7,1.3s1.2-1.1,1.3-1.1c0.8,0.3,1.7-0.2,2-1c0-0.1,0-0.2,0.1-0.3l1.3-4.3c2.2-7.6,2.5-15.6,1-23.3l0,0
			c-0.6-2.8-2.5-5.1-5.2-6.2l-5.1-2l-0.2-2.2c0,0,0.1,0.3,0.7-0.1s0-1.1-0.6-1.5s-1,0.4-1,0.4l0,0c-0.7-1.1-1.9-1.7-3.2-1.7
			l-0.5-0.1C349.4,91,348.1,91.6,347.2,92.7"/>
	</g>
</g>
</svg>
